M48
;Layer_Color=9474304
;FILE_FORMAT=4:4
METRIC
;TYPE=PLATED
T1F00S00C0.7000
T2F00S00C0.8000
T3F00S00C0.8636
T4F00S00C0.8890
T5F00S00C0.9000
T6F00S00C0.9906
T7F00S00C1.0000
T8F00S00C1.0160
T9F00S00C1.3000
;TYPE=NON_PLATED
T10F00S00C3.0000
%
T01
X00924052Y00815086
Y00840486
X00950976
Y00815086
X00977900
Y00840486
T02
X00773430Y00946150
X00772160Y01068070
X00814070
X00856420
X00899160
X00900430Y00946150
X00857690
X00815340
T03
X01037220Y00713070
Y00738470
Y00763870
Y00789270
T04
X00539750Y01094740
Y01170940
X01343660Y01184910
X01344930Y01062990
T05
X00574040Y01115060
Y01140460
X01139847Y01136650
Y01111250
X01166771
Y01136650
X01251861
Y01111250
X01278785
Y01136650
X01305709
Y01111250
T06
X01215390Y01098550
Y01123950
Y01149350
T07
X00717550Y00358140
Y00383540
X00869950
Y00358140
Y00408940
Y00434340
Y00459740
Y00485140
Y00510540
Y00535940
Y00561340
Y00586740
Y00612140
Y00637540
Y00662940
Y00688340
Y00713740
Y00739140
Y00764540
Y00789940
X00717550
Y00764540
Y00739140
Y00713740
Y00688340
Y00662940
Y00637540
Y00612140
Y00586740
Y00561340
Y00535940
Y00510540
Y00485140
Y00459740
Y00434340
Y00408940
Y00815340
Y00840740
X00612290Y01025220
X00889320Y00897070
X00869950Y00840740
Y00815340
X01001720Y00991970
X01062970Y00977056
X01064020Y01055870
X01107290Y01025220
X01064260Y01135380
X00943610
X01107290Y01225220
X00612290
T08
X01278890Y01065530
X01304290
T09
X00359664Y00215900
X00410464
X00461137
X00511810
X00561467
X00612267
X00662940
X00713613
X00763397Y00215646
X00491490Y00358013
X00814197Y00215646
X00864870
X00915543
X00966597
X01017397
X01068070
X01118743
X01195070Y00256667
Y00307467
Y00358140
Y00411480
Y00462280
Y00512953
Y00566547
Y00617347
Y00668020
Y00721487
Y00772287
X01048420Y00612870
X00997620
X00635120Y00580170
X00584320
X00491490Y00562356
Y00511683
Y00459486
Y00408686
Y00613156
Y00665353
Y00716026
Y00766826
X00573720Y00698670
X00624520
X00635520Y00808270
X00584720
X00491490Y00819023
Y00869696
Y00920496
X00585020Y00915070
X00635820
X00477520Y01023620
Y01074420
Y01188720
X00397020Y01159070
Y01108270
X01019820Y00935470
Y00884670
X01195070Y00877570
Y00928370
Y00979043
Y00822960
X00477520Y01239520
T10
X00361950Y00377190
X01344930Y00198120
X00402520Y01004070
X01303120
Y01224470
X00403420
M30
