%TF.GenerationSoftware,Altium Limited,Altium Designer,21.8.1 (53)*%
G04 Layer_Physical_Order=2*
G04 Layer_Color=16711680*
%FSLAX44Y44*%
%MOMM*%
%TF.SameCoordinates,CDC473F9-1FC5-4C8A-9042-356631BF9B38*%
%TF.FilePolarity,Positive*%
%TF.FileFunction,Copper,L2,Bot,Signal*%
%TF.Part,Single*%
G01*
G75*
%TA.AperFunction,Conductor*%
%ADD10C,0.7000*%
%ADD11C,1.0000*%
%ADD12C,0.8000*%
%ADD13C,1.3000*%
%TA.AperFunction,ComponentPad*%
%ADD14R,2.5000X2.5000*%
%ADD15R,2.5000X2.5000*%
%ADD16O,2.2860X1.9050*%
%ADD17R,2.2860X1.9050*%
%TA.AperFunction,WasherPad*%
%ADD18C,3.0000*%
%TA.AperFunction,ComponentPad*%
G04:AMPARAMS|DCode=19|XSize=2.3mm|YSize=1.7mm|CornerRadius=0.425mm|HoleSize=0mm|Usage=FLASHONLY|Rotation=0.000|XOffset=0mm|YOffset=0mm|HoleType=Round|Shape=RoundedRectangle|*
%AMROUNDEDRECTD19*
21,1,2.3000,0.8500,0,0,0.0*
21,1,1.4500,1.7000,0,0,0.0*
1,1,0.8500,0.7250,-0.4250*
1,1,0.8500,-0.7250,-0.4250*
1,1,0.8500,-0.7250,0.4250*
1,1,0.8500,0.7250,0.4250*
%
%ADD19ROUNDEDRECTD19*%
%ADD20C,1.7500*%
%ADD21C,2.1590*%
G04:AMPARAMS|DCode=22|XSize=1.8mm|YSize=1.8mm|CornerRadius=0mm|HoleSize=0mm|Usage=FLASHONLY|Rotation=180.000|XOffset=0mm|YOffset=0mm|HoleType=Round|Shape=Octagon|*
%AMOCTAGOND22*
4,1,8,-0.9000,0.4500,-0.9000,-0.4500,-0.4500,-0.9000,0.4500,-0.9000,0.9000,-0.4500,0.9000,0.4500,0.4500,0.9000,-0.4500,0.9000,-0.9000,0.4500,0.0*
%
%ADD22OCTAGOND22*%

%ADD23C,1.7000*%
%ADD24R,2.5400X2.0320*%
%ADD25O,2.5400X2.0320*%
%ADD26C,3.0000*%
%ADD27R,3.0000X3.0000*%
%ADD28O,3.0480X2.5400*%
%ADD29R,2.0320X2.0320*%
%ADD30C,2.0320*%
%TA.AperFunction,ViaPad*%
%ADD31C,2.2000*%
%ADD32C,2.5000*%
D10*
X460737Y776637D02*
Y792207D01*
X405130Y737470D02*
X421570D01*
X460737Y792207D02*
X461010Y792480D01*
X421570Y737470D02*
X460737Y776637D01*
X323100Y654600D02*
X330170Y661670D01*
X405130D01*
X440300Y729860D02*
X502920Y792480D01*
X440300Y680600D02*
Y729860D01*
X422430Y662730D02*
X440300Y680600D01*
X438570Y636270D02*
X459300Y657000D01*
Y706510D02*
X519200Y766410D01*
X459300Y657000D02*
Y706510D01*
X405130Y636270D02*
X438570D01*
X406140Y611880D02*
X454280D01*
X475300Y632900D01*
Y702000D01*
X537010Y763710D01*
X689300Y799900D02*
X707400Y781800D01*
X689300Y799900D02*
Y838300D01*
X690350Y837250D01*
X546000Y743400D02*
X576900D01*
X504500Y701900D02*
X546000Y743400D01*
X466770Y483870D02*
X504500Y521600D01*
Y701900D01*
X405130Y483870D02*
X466770D01*
X803910Y156464D02*
Y288290D01*
X557530Y331470D02*
X801370D01*
X824230Y308610D01*
Y176530D02*
Y308610D01*
X557530Y306070D02*
X786130D01*
X803910Y288290D01*
X798830Y806450D02*
X817753Y825373D01*
X786130Y433070D02*
X798830Y445770D01*
Y806450D01*
X405130Y610870D02*
X406140Y611880D01*
X537010Y763710D02*
X583909D01*
X588010Y767811D02*
Y792480D01*
X583909Y763710D02*
X588010Y767811D01*
X404960Y636100D02*
X405130Y636270D01*
X519200Y766410D02*
Y766410D01*
X545270Y792480D01*
X405130Y661670D02*
X406190Y662730D01*
X422430D01*
X405130Y687070D02*
Y737470D01*
X312100Y545000D02*
Y587500D01*
X360700Y636100D01*
X402670Y506810D02*
X405130Y509270D01*
X389230Y506810D02*
X402670D01*
X385130Y397530D02*
Y502709D01*
X389230Y506810D01*
X388941Y532500D02*
X402960D01*
X373130Y516689D02*
X388941Y532500D01*
X402960D02*
X405130Y534670D01*
X373130Y402930D02*
Y516689D01*
X337130Y554730D02*
X365500Y583100D01*
X349130Y545030D02*
X387110Y583010D01*
X337130Y513283D02*
Y554730D01*
X361130Y409130D02*
Y535630D01*
X323200Y499353D02*
X337130Y513283D01*
X349130Y414730D02*
Y545030D01*
X361130Y535630D02*
X377170Y551670D01*
X393324D01*
X387110Y583010D02*
X402670D01*
X405130Y585470D01*
X365500Y583100D02*
Y602200D01*
X322700Y426500D02*
X323200Y427000D01*
X329100Y358900D02*
X373130Y402930D01*
X323200Y427000D02*
Y499353D01*
X325885Y391485D02*
X349130Y414730D01*
X330500Y378500D02*
X361130Y409130D01*
X393324Y551670D02*
X401724Y560070D01*
X405130D01*
X323400Y761400D02*
X381200D01*
X254385Y391485D02*
X325885D01*
X250400Y378500D02*
X330500D01*
X234400Y394500D02*
X250400Y378500D01*
X246400Y399470D02*
X254385Y391485D01*
X246400Y399470D02*
Y428000D01*
X222400Y377400D02*
X240900Y358900D01*
X234400Y394500D02*
Y422800D01*
X240010Y434390D02*
X246400Y428000D01*
X225200Y432000D02*
X234400Y422800D01*
X179070Y459486D02*
X222400Y416156D01*
Y377400D02*
Y416156D01*
X225200Y432000D02*
Y593950D01*
X240010Y434390D02*
Y745510D01*
X315976Y328376D02*
X385130Y397530D01*
X240900Y358900D02*
X329100D01*
X315976Y309916D02*
Y328376D01*
X387370Y381670D02*
X404530D01*
X334010Y170180D02*
Y328310D01*
X387370Y381670D01*
X404530D02*
X405130Y382270D01*
X387370Y330870D02*
X404530D01*
X367030Y146050D02*
Y310530D01*
X387370Y330870D01*
X404530D02*
X405130Y331470D01*
X349250Y157480D02*
Y322450D01*
X383670Y356870D02*
X405130D01*
X349250Y322450D02*
X383670Y356870D01*
X557865Y559735D02*
X724465D01*
X724800Y559400D01*
X557530Y560070D02*
X557865Y559735D01*
X724465Y585135D02*
X724800Y584800D01*
X557530Y585470D02*
X557865Y585135D01*
X724465D01*
X365500Y602200D02*
X374170Y610870D01*
X405130D01*
X360700Y636100D02*
X404960D01*
X381200Y761400D02*
X405130Y737470D01*
X218694Y766826D02*
X240010Y745510D01*
X205994Y613156D02*
X225200Y593950D01*
X148717Y105537D02*
X163080Y119900D01*
X311670D01*
X349250Y157480D01*
X510540Y166360D02*
X561330Y115570D01*
X687070D01*
X510540Y166360D02*
Y510540D01*
X568900Y139700D02*
X736600D01*
X529590Y179010D02*
Y494030D01*
Y179010D02*
X568900Y139700D01*
X490220Y153480D02*
Y416560D01*
X553720Y63246D02*
Y89980D01*
X490220Y153480D02*
X553720Y89980D01*
X824230Y176530D02*
X846963Y153797D01*
X387640Y306070D02*
X405130D01*
X383540Y135890D02*
Y301970D01*
X387640Y306070D01*
X327660Y106680D02*
X367030Y146050D01*
X308610Y106680D02*
X327660D01*
X299847Y97917D02*
X308610Y106680D01*
X801370Y407670D02*
X817880Y424180D01*
Y646430D02*
X840740Y669290D01*
X817880Y424180D02*
Y646430D01*
X350520Y62230D02*
Y102870D01*
X383540Y135890D01*
X120650Y138430D02*
X302260D01*
X334010Y170180D01*
X97790Y115570D02*
X120650Y138430D01*
X179070Y305816D02*
X311875D01*
X315976Y309916D01*
X529590Y494030D02*
X544830Y509270D01*
X482019Y424869D02*
X486119Y420768D01*
Y420661D02*
X490220Y416560D01*
X481911Y424869D02*
X482019D01*
X486119Y420661D02*
Y420768D01*
X473710Y433070D02*
X481911Y424869D01*
X405130Y433070D02*
X473710D01*
X472440Y125730D02*
Y391160D01*
X405130Y407670D02*
X455930D01*
X472440Y391160D01*
X510540Y510540D02*
X534670Y534670D01*
X472440Y125730D02*
X501650Y96520D01*
X817753Y825373D02*
X882650D01*
X179070Y613156D02*
X205994D01*
X179070Y766826D02*
X218694D01*
X846963Y153797D02*
X882650D01*
X803910Y156464D02*
X857377Y102997D01*
X835660Y497840D02*
X852170Y514350D01*
X835660Y408940D02*
Y497840D01*
X852170Y514350D02*
X882650D01*
X557530Y433070D02*
X786130D01*
X557530Y407670D02*
X801370D01*
X808990Y382270D02*
X835660Y408940D01*
X557530Y382270D02*
X808990D01*
X704977Y61976D02*
Y97663D01*
X687070Y115570D02*
X704977Y97663D01*
X736600Y139700D02*
X755650Y120650D01*
Y61976D02*
Y120650D01*
X501650Y62103D02*
Y96520D01*
Y62103D02*
X501777Y61976D01*
X97790Y62484D02*
Y115570D01*
X148717Y62230D02*
Y105537D01*
X544830Y509270D02*
X557530D01*
X857377Y102997D02*
X882650D01*
X840740Y669290D02*
X882650D01*
X97790Y62484D02*
X98044Y62230D01*
X299847D02*
Y97917D01*
X552450Y61976D02*
X553720Y63246D01*
X534670Y534670D02*
X557530D01*
X880237Y356870D02*
X882650Y359283D01*
D11*
X261300Y545000D02*
X262400Y546100D01*
Y598500D01*
X272300Y608400D01*
Y654600D01*
X272450Y654750D02*
Y761250D01*
X272600Y761400D01*
X272300Y654600D02*
X272450Y654750D01*
X707400Y731000D02*
X709000Y732600D01*
X728000D01*
X735200Y739800D02*
Y799542D01*
X728000Y732600D02*
X735200Y739800D01*
X717900Y816842D02*
Y840028D01*
Y816842D02*
X735200Y799542D01*
X717900Y840028D02*
X723758Y845886D01*
X801114D01*
X882650Y723900D02*
X902432D01*
X855980D02*
X882650D01*
X654177Y61976D02*
Y83693D01*
Y41418D02*
Y61976D01*
X750550Y823386D02*
X752200Y821735D01*
Y627903D02*
Y821735D01*
X740372Y616075D02*
X752200Y627903D01*
X801114Y845886D02*
X801650Y845350D01*
X735029Y616075D02*
X740372D01*
X724800Y610200D02*
X729154D01*
X735029Y616075D01*
X938400Y801370D02*
X1047750D01*
X858520D02*
X938400D01*
X937800Y801970D02*
Y858500D01*
Y801970D02*
X938400Y801370D01*
X927400Y868900D02*
X937800Y858500D01*
X877600Y868900D02*
X927400D01*
X854050Y845350D02*
X877600Y868900D01*
X801650Y845350D02*
X854050D01*
X778100Y821800D02*
X801650Y845350D01*
X794870Y871550D02*
Y925023D01*
X827427Y957580D01*
X791043Y867723D02*
X794870Y871550D01*
X778100Y465758D02*
Y821800D01*
X772242Y459900D02*
X778100Y465758D01*
X736700Y459900D02*
X772242D01*
X736000Y459200D02*
X736700Y459900D01*
X529590Y694890D02*
X545000Y710300D01*
X529590Y642128D02*
Y694890D01*
X545000Y710300D02*
X583300D01*
X535448Y636270D02*
X557530D01*
X605118D01*
X583300Y710300D02*
X617220Y744220D01*
X557895Y458835D02*
X684835D01*
X557530Y458470D02*
X557895Y458835D01*
X684835D02*
X685200Y459200D01*
X91900Y1036300D02*
X163850D01*
X165100Y1035050D01*
X84600Y1005400D02*
Y1029000D01*
X91900Y1036300D01*
X261300Y437100D02*
X271900Y426500D01*
X261300Y437100D02*
Y545000D01*
X415250Y785450D02*
X430530Y800730D01*
X138430Y773430D02*
X165450Y800450D01*
X284208Y785450D02*
X415250D01*
X273500Y762300D02*
Y774742D01*
X284208Y785450D01*
X165450Y800450D02*
X376270D01*
X403860Y828040D01*
X272600Y761400D02*
X273500Y762300D01*
X114300Y792480D02*
X140970Y819150D01*
X354330D01*
X375920Y840740D01*
X203042Y408686D02*
X208900Y402828D01*
X157700Y331600D02*
X203042D01*
X208900Y337458D02*
Y402828D01*
X179070Y408686D02*
X203042D01*
Y331600D02*
X208900Y337458D01*
X751600Y902200D02*
Y981470D01*
X751840Y981710D01*
X724800Y635600D02*
Y671300D01*
X709284Y686816D02*
X724800Y671300D01*
X665480Y686816D02*
X709284D01*
X586740Y914400D02*
X604520D01*
X544000D02*
X586740D01*
X501650D02*
X544000D01*
X665480Y686816D02*
Y862200D01*
X139300Y568300D02*
Y632000D01*
Y568300D02*
X145400Y562200D01*
X139300Y632000D02*
X146110Y638810D01*
X178914Y562200D02*
X179070Y562356D01*
X145400Y562200D02*
X178914D01*
X177624Y717472D02*
X179070Y716026D01*
X138430Y736470D02*
X157428Y717472D01*
X138430Y736470D02*
Y773430D01*
X157428Y717472D02*
X177624D01*
X179070Y716026D02*
X201152D01*
X854710Y263668D02*
Y322610D01*
X865295Y333195D02*
X900347D01*
X854710Y322610D02*
X865295Y333195D01*
X854710Y189890D02*
Y263668D01*
X865530Y179070D02*
X899160D01*
X854710Y189890D02*
X865530Y179070D01*
X149300Y266300D02*
Y323200D01*
X157700Y331600D01*
X175914Y258172D02*
X179070Y255016D01*
X149300Y266300D02*
X157428Y258172D01*
X175914D01*
X146200Y470900D02*
X160000Y484700D01*
X198950D02*
X208900Y494650D01*
X160000Y484700D02*
X198950D01*
X146200Y421100D02*
X157090Y410210D01*
X177546D01*
X146200Y421100D02*
Y470900D01*
X146110Y638810D02*
X201152D01*
X248928Y62349D02*
X249047Y62230D01*
X237550Y95250D02*
X248928Y83872D01*
X184150Y95250D02*
X237550D01*
X248928Y62349D02*
Y83872D01*
X249047Y46498D02*
Y62230D01*
X665480Y862200D02*
Y995680D01*
X666212Y862932D02*
X767300D01*
X665480Y862200D02*
X666212Y862932D01*
X767300D02*
X772091Y867723D01*
X791043D01*
X208900Y494650D02*
Y554300D01*
X179070Y562356D02*
X200844D01*
X208900Y554300D01*
X603250Y15240D02*
X788670D01*
X407670D02*
X603250D01*
X603123Y15367D02*
X603250Y15240D01*
X603123Y15367D02*
Y61976D01*
X529590Y642128D02*
X535448Y636270D01*
X904945Y972255D02*
X916272D01*
X926779Y982762D02*
X939222D01*
X902970Y970280D02*
X904945Y972255D01*
X916272D02*
X926779Y982762D01*
X939222D02*
X939441Y982980D01*
X966365D01*
X114300Y666750D02*
Y792480D01*
X132207Y204343D02*
X179070D01*
X114300Y222250D02*
X132207Y204343D01*
X114300Y222250D02*
Y356870D01*
Y513080D01*
X115443Y358013D02*
X179070D01*
X114300Y356870D02*
X115443Y358013D01*
X114300Y513080D02*
Y666750D01*
X115697Y511683D02*
X179070D01*
X114300Y513080D02*
X115697Y511683D01*
X114300Y666750D02*
X115697Y665353D01*
X179070D01*
X794870Y1071550D02*
X822182D01*
X828040Y1065692D01*
Y983593D02*
Y1065692D01*
X794870Y1071550D02*
X796050Y1070370D01*
X403860Y957580D02*
X427990Y981710D01*
X631190D01*
X753841Y982980D02*
X827427D01*
X751840Y981710D02*
X752571D01*
X753841Y982980D01*
X375920Y840740D02*
Y990600D01*
X402590Y1017270D02*
X643890D01*
X375920Y990600D02*
X402590Y1017270D01*
X643890D02*
X665480Y995680D01*
X403860Y828040D02*
Y957580D01*
X179070Y176530D02*
Y204343D01*
X161290Y158750D02*
X179070Y176530D01*
X39370Y158750D02*
X161290D01*
X20320Y139700D02*
X39370Y158750D01*
X20320Y33020D02*
Y139700D01*
X944880Y205740D02*
Y309880D01*
Y83820D02*
Y205740D01*
X882650Y204470D02*
X883920Y205740D01*
X944880D01*
Y309880D02*
Y464820D01*
X882650Y308610D02*
X943610D01*
X944880Y309880D01*
Y464820D02*
Y619760D01*
X882650Y463677D02*
X943737D01*
X944880Y464820D01*
Y619760D02*
Y751840D01*
X882650Y618617D02*
X943737D01*
X944880Y619760D01*
X882650Y774700D02*
X922020D01*
X944880Y751840D01*
X806323Y61976D02*
X923036D01*
X944880Y83820D01*
X438150Y125730D02*
X450850Y113030D01*
Y83820D02*
Y113030D01*
X420370Y125730D02*
X438150D01*
X405130Y140970D02*
Y204470D01*
Y140970D02*
X420370Y125730D01*
X847090Y732790D02*
Y789940D01*
Y732790D02*
X855980Y723900D01*
X859790Y643890D02*
X902432D01*
X908290Y649748D01*
X848360Y632460D02*
X859790Y643890D01*
X908290Y649748D02*
Y718042D01*
X859298Y486410D02*
X897890D01*
X853440Y420370D02*
Y480552D01*
Y420370D02*
X860282Y413528D01*
X853440Y480552D02*
X859298Y486410D01*
X860282Y413528D02*
X881999D01*
X882650Y412877D01*
X908290Y87870D02*
Y169940D01*
X899160Y179070D02*
X908290Y169940D01*
X617220Y744220D02*
Y901700D01*
X201152Y716026D02*
X207010Y710168D01*
Y644668D02*
Y710168D01*
X201152Y638810D02*
X207010Y644668D01*
X604520Y914400D02*
X617220Y901700D01*
X848360Y580390D02*
X859738Y569012D01*
X848360Y580390D02*
Y632460D01*
X859738Y569012D02*
X881455D01*
X882650Y567817D01*
X795020Y96520D02*
X824230D01*
X781050Y82550D02*
X795020Y96520D01*
X781050Y41418D02*
Y82550D01*
X642620Y95250D02*
X654177Y83693D01*
X591820Y95250D02*
X642620D01*
X577850Y81280D02*
X591820Y95250D01*
X577850Y45334D02*
Y81280D01*
X387350Y91440D02*
X443230D01*
X450850Y83820D01*
Y62103D02*
Y83820D01*
Y62103D02*
X450977Y61976D01*
X173990Y40148D02*
Y85090D01*
X184150Y95250D01*
X450977Y46498D02*
Y61976D01*
X806323Y32893D02*
Y61976D01*
X788670Y15240D02*
X806323Y32893D01*
X38100Y15240D02*
X214630D01*
X20320Y33020D02*
X38100Y15240D01*
X902192Y567817D02*
X908050Y561959D01*
X882650Y567817D02*
X902192D01*
X908050Y496570D02*
Y561959D01*
X430530Y800730D02*
Y933450D01*
X447040Y949960D02*
X615950D01*
X638556Y927354D01*
Y686816D02*
Y927354D01*
X430530Y933450D02*
X447040Y949960D01*
X1047750Y801370D02*
X1062990Y816610D01*
X1050290Y982980D02*
X1062990Y970280D01*
Y816610D02*
Y970280D01*
X993289Y982980D02*
X1050290D01*
X847090Y789940D02*
X858520Y801370D01*
X993140Y910590D02*
X1031240D01*
X1032510Y909320D01*
X991870Y911860D02*
X993140Y910590D01*
X966417Y911913D02*
Y957527D01*
Y911913D02*
X966470Y911860D01*
X966365Y957580D02*
X966417Y957527D01*
X1003300Y1031240D02*
X1031240D01*
X993289Y1021229D02*
X1003300Y1031240D01*
X993289Y982980D02*
Y1021229D01*
X966365Y982980D02*
X993289D01*
X966365Y957580D02*
X993289D01*
X939441D02*
X966365D01*
X902970Y944880D02*
X926741D01*
X939441Y957580D01*
X855307Y950738D02*
Y956623D01*
X861165Y944880D02*
X902970D01*
X855307Y950738D02*
X861165Y944880D01*
X854351Y957580D02*
X855307Y956623D01*
Y989822D02*
X861165Y995680D01*
X855307Y983937D02*
Y989822D01*
X861165Y995680D02*
X902970D01*
X854351Y982980D02*
X855307Y983937D01*
X827427Y957580D02*
X854351D01*
X827427Y982980D02*
X854351D01*
X827427D02*
X828040Y983593D01*
X660035Y35560D02*
X775192D01*
X781050Y41418D01*
X457999Y39476D02*
X571992D01*
X577850Y45334D01*
X375920Y45588D02*
Y80010D01*
X255815Y39730D02*
X370062D01*
X375920Y80010D02*
X387350Y91440D01*
X370062Y39730D02*
X375920Y45588D01*
X53102Y34290D02*
X168132D01*
X173990Y40148D01*
X47244D02*
Y62230D01*
Y40148D02*
X53102Y34290D01*
X900430Y80010D02*
X908290Y87870D01*
X840740Y80010D02*
X900430D01*
X824230Y96520D02*
X840740Y80010D01*
X654177Y41418D02*
X660035Y35560D01*
X860568Y257810D02*
X882650D01*
X854710Y263668D02*
X860568Y257810D01*
X900347Y333195D02*
X908290Y341138D01*
Y407019D01*
X902432Y412877D02*
X908290Y407019D01*
X882650Y412877D02*
X902432D01*
X897890Y486410D02*
X908050Y496570D01*
X902432Y723900D02*
X908290Y718042D01*
X450977Y46498D02*
X457999Y39476D01*
X249047Y46498D02*
X255815Y39730D01*
X199390Y30480D02*
Y62230D01*
Y30480D02*
X214630Y15240D01*
X407670D01*
X401193Y21717D02*
Y62230D01*
Y21717D02*
X407670Y15240D01*
X611505Y686943D02*
X611632Y686816D01*
X557530Y687070D02*
X557657Y686943D01*
X611505D01*
X605118Y636270D02*
X610976Y642128D01*
Y660760D01*
X611632Y661416D01*
X638556D02*
X665480D01*
X611632D02*
X638556D01*
Y686816D02*
X665480D01*
X611632D02*
X638556D01*
X459740Y914400D02*
X501650D01*
X177546Y410210D02*
X179070Y408686D01*
D12*
X557530Y356870D02*
X880237D01*
D13*
X126700Y858700D02*
X145930Y839470D01*
X126700Y858700D02*
Y912500D01*
X84600Y954600D02*
X126700Y912500D01*
X145930Y839470D02*
X207010D01*
X227330Y859790D02*
Y941070D01*
X207010Y839470D02*
X227330Y859790D01*
X272120Y872150D02*
X299270D01*
X261620Y882650D02*
X272120Y872150D01*
X299270D02*
X299870Y871550D01*
X261620Y882650D02*
Y961390D01*
Y1009655D02*
Y1062995D01*
X269235Y1070610D02*
X298930D01*
X261620Y1062995D02*
X269235Y1070610D01*
X298930D02*
X299870Y1071550D01*
X227330Y1017270D02*
X254005D01*
X261620Y986790D02*
Y1009655D01*
X254005Y1017270D02*
X261620Y1009655D01*
X261237Y961007D02*
X261620Y961390D01*
X254005Y942471D02*
X261237Y949703D01*
X228731Y942471D02*
X254005D01*
X261237Y949703D02*
Y961007D01*
X227330Y941070D02*
X228731Y942471D01*
X165100Y977900D02*
X204470Y1017270D01*
X227330D01*
X165100Y920750D02*
Y977900D01*
Y869950D02*
Y920750D01*
Y1035050D02*
Y1085850D01*
D14*
X707400Y731000D02*
D03*
Y781800D02*
D03*
X84600Y954600D02*
D03*
Y1005400D02*
D03*
X882650Y514350D02*
D03*
Y412877D02*
D03*
Y463677D02*
D03*
Y669290D02*
D03*
Y567817D02*
D03*
Y618617D02*
D03*
Y825373D02*
D03*
Y723900D02*
D03*
Y774700D02*
D03*
Y204470D02*
D03*
Y102997D02*
D03*
Y153797D02*
D03*
Y359283D02*
D03*
Y257810D02*
D03*
Y308610D02*
D03*
X179070Y204343D02*
D03*
Y305816D02*
D03*
Y255016D02*
D03*
Y358013D02*
D03*
Y459486D02*
D03*
Y408686D02*
D03*
Y716026D02*
D03*
Y766826D02*
D03*
Y665353D02*
D03*
Y562356D02*
D03*
Y613156D02*
D03*
Y511683D02*
D03*
D15*
X736000Y459200D02*
D03*
X685200D02*
D03*
X323400Y761400D02*
D03*
X272600D02*
D03*
X322700Y426500D02*
D03*
X271900D02*
D03*
X312100Y545000D02*
D03*
X261300D02*
D03*
X323100Y654600D02*
D03*
X272300D02*
D03*
X806323Y61976D02*
D03*
X755650D02*
D03*
X654177D02*
D03*
X704977D02*
D03*
X603123D02*
D03*
X552450D02*
D03*
X450977D02*
D03*
X501777D02*
D03*
X199390Y62230D02*
D03*
X148717D02*
D03*
X47244D02*
D03*
X98044D02*
D03*
X401193D02*
D03*
X350520D02*
D03*
X249047D02*
D03*
X299847D02*
D03*
D16*
X724800Y559400D02*
D03*
Y584800D02*
D03*
Y610200D02*
D03*
D17*
Y635600D02*
D03*
D18*
X90100Y850400D02*
D03*
X990700D02*
D03*
X49530Y223520D02*
D03*
X1032510Y44450D02*
D03*
X990700Y1070800D02*
D03*
X91000D02*
D03*
D19*
X405130Y687070D02*
D03*
Y661670D02*
D03*
Y636270D02*
D03*
Y610870D02*
D03*
Y585470D02*
D03*
Y560070D02*
D03*
Y534670D02*
D03*
Y509270D02*
D03*
Y483870D02*
D03*
Y458470D02*
D03*
Y433070D02*
D03*
Y407670D02*
D03*
Y382270D02*
D03*
Y356870D02*
D03*
Y331470D02*
D03*
Y306070D02*
D03*
Y280670D02*
D03*
Y255270D02*
D03*
Y229870D02*
D03*
Y204470D02*
D03*
X557530Y687070D02*
D03*
Y661670D02*
D03*
Y636270D02*
D03*
Y610870D02*
D03*
Y585470D02*
D03*
Y560070D02*
D03*
Y534670D02*
D03*
Y509270D02*
D03*
Y483870D02*
D03*
Y458470D02*
D03*
Y433070D02*
D03*
Y407670D02*
D03*
Y382270D02*
D03*
Y356870D02*
D03*
Y331470D02*
D03*
Y306070D02*
D03*
Y280670D02*
D03*
Y255270D02*
D03*
Y229870D02*
D03*
Y204470D02*
D03*
D20*
X665480Y686816D02*
D03*
Y661416D02*
D03*
X993289Y957580D02*
D03*
Y982980D02*
D03*
X966365Y957580D02*
D03*
Y982980D02*
D03*
X939441Y957580D02*
D03*
Y982980D02*
D03*
X854351Y957580D02*
D03*
Y982980D02*
D03*
X827427Y957580D02*
D03*
Y982980D02*
D03*
X261620Y961390D02*
D03*
Y986790D02*
D03*
X638556Y686816D02*
D03*
Y661416D02*
D03*
X611632Y686816D02*
D03*
Y661416D02*
D03*
D21*
X1032510Y909320D02*
D03*
X1031240Y1031240D02*
D03*
X502920Y792480D02*
D03*
X501650Y914400D02*
D03*
X545270Y792480D02*
D03*
X544000Y914400D02*
D03*
X588010Y792480D02*
D03*
X586740Y914400D02*
D03*
X461010Y792480D02*
D03*
X459740Y914400D02*
D03*
D22*
X991870Y911860D02*
D03*
D23*
X966470D02*
D03*
D24*
X902970Y944880D02*
D03*
D25*
Y970280D02*
D03*
Y995680D02*
D03*
D26*
X299870Y871550D02*
D03*
X794870Y1071550D02*
D03*
Y871550D02*
D03*
D27*
X299870Y1071550D02*
D03*
D28*
X165100Y869950D02*
D03*
Y1085850D02*
D03*
Y1035050D02*
D03*
Y920750D02*
D03*
D29*
X227330Y1017270D02*
D03*
D30*
Y941070D02*
D03*
D31*
X689300Y838300D02*
D03*
X576900Y743400D02*
D03*
D32*
X750550Y823386D02*
D03*
X751600Y902200D02*
D03*
X631190Y981710D02*
D03*
X751840D02*
D03*
%TF.MD5,97d6b70d52da2c69f71bf817a3c9039c*%
M02*
